<svg width="64" height="64" viewBox="0 0 64 64" fill="none" xmlns="http://www.w3.org/2000/svg">
<path fill-rule="evenodd" clip-rule="evenodd" d="M23.6326 36.0024C24.6116 36.0014 25.4816 35.3764 25.7946 34.4484C26.5836 31.9964 28.8916 30.2344 31.6076 30.2344C34.3236 30.2344 36.6316 31.9964 37.4496 34.4384C37.7586 35.3544 38.6166 35.9704 39.5826 35.9704C40.5466 36.0024 41.5316 36.0024 41.5316 36.0024C43.2556 36.0024 44.9096 36.6874 46.1276 37.9064C47.3466 39.1244 48.0316 40.7784 48.0316 42.5024C48.0316 42.5034 48.0316 42.5044 48.0316 42.5054C48.0316 44.2284 47.3466 45.8824 46.1276 47.1014C44.9096 48.3204 43.2556 49.0044 41.5316 49.0044C35.7816 49.0044 27.4336 49.0044 21.6826 49.0044C19.9596 49.0044 18.3056 48.3204 17.0866 47.1014C15.8676 45.8824 15.1836 44.2284 15.1836 42.5054C15.1836 42.5044 15.1836 42.5034 15.1836 42.5024C15.1836 40.7784 15.8676 39.1244 17.0866 37.9064C18.3056 36.6874 19.9596 36.0024 21.6826 36.0024H23.6326Z" stroke="white" stroke-width="1.5" stroke-miterlimit="2" stroke-linecap="round" stroke-linejoin="round"/>
<path d="M11.8633 44.6816C10.8933 44.3686 10.0013 43.8276 9.26628 43.0936C8.04728 41.8746 7.36328 40.2216 7.36328 38.4976V38.4946C7.36328 36.7706 8.04728 35.1176 9.26628 33.8986C10.4853 32.6796 12.1393 31.9946 13.8623 31.9946H17.6403C17.8423 28.7776 20.5193 26.2266 23.7873 26.2266C26.5473 26.2266 28.8863 28.0466 29.6673 30.5506" stroke="white" stroke-width="1.5" stroke-miterlimit="2" stroke-linecap="round" stroke-linejoin="round"/>
<path d="M37.2305 26.9976C38.1125 26.5066 39.1285 26.2266 40.2105 26.2266C42.9265 26.2266 45.2345 27.9886 46.0525 30.4316C46.3615 31.3466 47.2195 31.9626 48.1855 31.9626C49.1495 31.9946 50.1355 31.9946 50.1355 31.9946C51.8585 31.9946 53.5125 32.6796 54.7315 33.8986C55.9505 35.1176 56.6345 36.7706 56.6345 38.4946V38.4976C56.6345 40.2216 55.9505 41.8746 54.7315 43.0936C53.5125 44.3126 51.8585 44.9976 50.1355 44.9976H47.5355" stroke="white" stroke-width="1.5" stroke-miterlimit="2" stroke-linecap="round" stroke-linejoin="round"/>
<path d="M38.8633 25.9961C38.8633 22.6841 41.5513 19.9961 44.8633 19.9961C48.1743 19.9961 50.8633 22.6841 50.8633 25.9961C50.8633 26.6971 50.7423 27.3701 50.5213 27.9961" stroke="white" stroke-width="1.5" stroke-miterlimit="2" stroke-linecap="round" stroke-linejoin="round"/>
<path d="M44.8633 14.9961V16.9961" stroke="white" stroke-width="1.5" stroke-miterlimit="2" stroke-linecap="round" stroke-linejoin="round"/>
<path d="M52.6406 18.2188L51.2266 19.6338" stroke="white" stroke-width="1.5" stroke-miterlimit="2" stroke-linecap="round" stroke-linejoin="round"/>
<path d="M55.8633 25.9961H53.8633" stroke="white" stroke-width="1.5" stroke-miterlimit="2" stroke-linecap="round" stroke-linejoin="round"/>
<path d="M37.0859 18.2188L38.5009 19.6338" stroke="white" stroke-width="1.5" stroke-miterlimit="2" stroke-linecap="round" stroke-linejoin="round"/>
</svg>
