<svg width="582" height="428" viewBox="0 0 582 428" fill="none" xmlns="http://www.w3.org/2000/svg">
<g clip-path="url(#clip0_653_21)">
<path fill-rule="evenodd" clip-rule="evenodd" d="M192.438 264.147C203.972 264.135 214.222 256.303 217.909 244.674C227.205 213.947 254.396 191.867 286.394 191.867C318.392 191.867 345.583 213.947 355.22 244.549C358.86 256.027 368.968 263.746 380.349 263.746C391.706 264.147 403.311 264.147 403.311 264.147C423.622 264.147 443.108 272.731 457.457 288.007C471.819 303.27 479.889 323.997 479.889 345.601C479.889 345.613 479.889 345.626 479.889 345.638C479.889 367.23 471.819 387.956 457.457 403.232C443.108 418.507 423.622 427.079 403.311 427.079C335.569 427.079 237.219 427.079 169.465 427.079C149.166 427.079 129.679 418.507 115.318 403.232C100.957 387.956 92.8984 367.23 92.8984 345.638C92.8984 345.626 92.8984 345.613 92.8984 345.601C92.8984 323.997 100.957 303.27 115.318 288.007C129.679 272.731 149.166 264.147 169.465 264.147H192.438Z" stroke="#DE11FF" stroke-width="1.5" stroke-miterlimit="2" stroke-linecap="round" stroke-linejoin="round"/>
<path d="M53.7734 372.897C42.3456 368.975 31.8368 362.195 23.1775 352.997C8.81619 337.722 0.757812 317.008 0.757812 295.404V295.366C0.757812 273.762 8.81619 253.048 23.1775 237.773C37.5389 222.497 57.0251 213.913 77.3242 213.913H121.834C124.214 173.6 155.752 141.633 194.253 141.633C226.769 141.633 254.326 164.44 263.527 195.818" stroke="#DE11FF" stroke-width="1.5" stroke-miterlimit="2" stroke-linecap="round" stroke-linejoin="round"/>
<path d="M352.641 151.294C363.032 145.142 375.001 141.633 387.749 141.633C419.747 141.633 446.938 163.713 456.575 194.327C460.215 205.793 470.324 213.512 481.704 213.512C493.061 213.913 504.678 213.913 504.678 213.913C524.977 213.913 544.463 222.497 558.824 237.773C573.186 253.048 581.244 273.762 581.244 295.366V295.404C581.244 317.008 573.186 337.722 558.824 352.997C544.463 368.273 524.977 376.857 504.678 376.857H474.046" stroke="#DE11FF" stroke-width="1.5" stroke-miterlimit="2" stroke-linecap="round" stroke-linejoin="round"/>
<path d="M371.867 138.766C371.867 97.2621 403.535 63.5781 442.555 63.5781C481.562 63.5781 513.242 97.2621 513.242 138.766C513.242 147.55 511.817 155.984 509.213 163.828" stroke="#DE11FF" stroke-width="1.5" stroke-miterlimit="2" stroke-linecap="round" stroke-linejoin="round"/>
<path d="M442.555 0.921875V25.9844" stroke="#DE11FF" stroke-width="1.5" stroke-miterlimit="2" stroke-linecap="round" stroke-linejoin="round"/>
<path d="M534.19 41.2812L517.531 59.0131" stroke="#DE11FF" stroke-width="1.5" stroke-miterlimit="2" stroke-linecap="round" stroke-linejoin="round"/>
<path d="M572.148 138.766H548.586" stroke="#DE11FF" stroke-width="1.5" stroke-miterlimit="2" stroke-linecap="round" stroke-linejoin="round"/>
<path d="M350.906 41.2812L367.577 59.0131" stroke="#DE11FF" stroke-width="1.5" stroke-miterlimit="2" stroke-linecap="round" stroke-linejoin="round"/>
</g>
<defs>
<clipPath id="clip0_653_21">
<rect width="582" height="428" fill="white"/>
</clipPath>
</defs>
</svg>
