<?xml version="1.0" encoding="iso-8859-1"?>
<!-- Uploaded to: SVG Repo, www.svgrepo.com, Generator: SVG Repo Mixer Tools -->
<svg version="1.1" id="Layer_1" xmlns="http://www.w3.org/2000/svg" xmlns:xlink="http://www.w3.org/1999/xlink" 
	 viewBox="0 0 512 512" xml:space="preserve">
<path style="fill:#FFD248;" d="M323.08,8.44c36.121,0,70.33,7.764,101.275,21.718C338.159,68.867,278.069,155.4,278.069,256
	s60.09,187.133,146.286,225.843c-30.945,13.953-65.153,21.718-101.275,21.718c-136.721,0-247.56-110.84-247.56-247.56
	S186.359,8.44,323.08,8.44z"/>
<path d="M286.508,256c0-93.967,55.465-179.595,141.303-218.144l17.109-7.683l-17.096-7.709C394.767,7.557,359.525,0,323.08,0
	C254.7,0,190.415,26.63,142.061,74.982S67.08,187.622,67.08,256s26.63,132.665,74.982,181.018S254.7,512,323.08,512
	c36.447,0,71.687-7.557,104.744-22.464l17.096-7.709l-17.109-7.683C341.973,435.595,286.508,349.967,286.508,256z M323.08,495.121
	C191.228,495.121,83.959,387.852,83.959,256c0-41.798,10.793-81.118,29.717-115.341h46.239V123.78h-35.973
	C166.834,59.393,240.081,16.879,323.08,16.879c27.826,0,54.897,4.716,80.713,14.04C321.7,75.404,269.629,161.783,269.629,256
	c0,40.846,9.793,80.216,27.569,115.341h-64.141v16.879h73.496c23.253,38.478,56.556,70.816,97.238,92.861
	C377.976,490.405,350.905,495.121,323.08,495.121z"/>
<rect x="199.297" y="123.78" width="33.758" height="16.879"/>
<rect x="176.792" y="371.341" width="33.758" height="16.879"/>
<rect x="131.781" y="281.319" width="33.758" height="16.879"/>
<rect x="188.045" y="213.802" width="33.758" height="16.879"/>
<rect x="244.308" y="67.516" width="33.758" height="16.879"/>
<rect x="255.561" y="427.604" width="33.758" height="16.879"/>
</svg>